{"title":"Closing Ceremony of the 2012 Olympic Games - No Commentary","uid":7527190,"size":2024538318,"categoryP":"video","categoryS":"tv_shows","magnet":"?xt=urn:btih:e2d240ba3ab81283ff983e695faf3a5285219826&amp;dn=Closing+Ceremony+of+the+2012+Olympic+Games+-+No+Commentary&amp;tr=udp%3A%2F%2Ftracker.openbittorrent.com%3A80&amp;tr=udp%3A%2F%2Fopen.demonii.com%3A1337&amp;tr=udp%3A%2F%2Ftracker.coppersurfer.tk%3A6969&amp;tr=udp%3A%2F%2Fexodus.desync.com%3A6969","seeders":0,"leechers":1,"uploader":"minhthai911","files":1,"time":1344829358,"description":"Source: BBC Red Button - No Commentary Audio Track\n\nGeneral\nComplete name                    : Closing Ceremony of the 2012 Olympic Games - No Commentary.avi\nFormat                           : AVI\nFormat/Info                      : Audio Video Interleave\nFormat profile                   : OpenDML\nFile size                        : 1.89 GiB\nDuration                         : 3h 18mn\nOverall bit rate                 : 1 363 Kbps\nWriting application              : MEncoder r33883\nWriting library                  : MPlayer\n\nVideo\nID                               : 0\nFormat                           : AVC\nFormat/Info                      : Advanced Video Codec\nFormat profile                   : &lt;a class=&quot;__cf_email__&quot; href=&quot;/cdn-cgi/l/email-protection&quot; data-cfemail=&quot;2e664749466e621b001f&quot;&gt;[email&amp;#160;protected]&lt;/a&gt;&lt;script cf-hash='f9e31' type=&quot;text/javascript&quot;&gt;\n/* &lt;![CDATA[ */!function(){try{var t=&quot;currentScript&quot;in document?document.currentScript:function(){for(var t=document.getElementsByTagName(&quot;script&quot;),e=t.length;e--;)if(t[e].getAttribute(&quot;cf-hash&quot;))return t[e]}();if(t&amp;&amp;t.previousSibling){var e,r,n,i,c=t.previousSibling,a=c.getAttribute(&quot;data-cfemail&quot;);if(a){for(e=&quot;&quot;,r=parseInt(a.substr(0,2),16),n=2;a.length-n;n+=2)i=parseInt(a.substr(n,2),16)^r,e+=String.fromCharCode(i);e=document.createTextNode(e),c.parentNode.replaceChild(e,c)}}}catch(u){}}();/* ]]&gt; */&lt;/script&gt;\nFormat settings, CABAC           : Yes\nFormat settings, ReFrames        : 4 frames\nCodec ID                         : H264\nDuration                         : 3h 18mn\nBit rate                         : 15.7 Kbps\nWidth                            : 682 pixels\nHeight                           : 384 pixels\nDisplay aspect ratio             : 16:9\nFrame rate                       : 25.000 fps\nColor space                      : YUV\nChroma subsampling               : 4:2:0\nBit depth                        : 8 bits\nScan type                        : Progressive\nBits/(Pixel*Frame)               : 0.002\nStream size                      : 22.2 MiB (1%)\n\nAudio\nID                               : 1\nFormat                           : MPEG Audio\nCodec ID                         : 55\nCodec ID/Hint                    : MP3\nDuration                         : 3h 18mn\nBit rate                         : 96.0 Kbps\nChannel(s)                       : 2 channels\nSampling rate                    : 48.0 KHz\nCompression mode                 : Lossy\nStream size                      : 136 MiB (7%)\nAlignment                        : Aligned on interleaves\n\n","torrent":{"xt":"urn:btih:e2d240ba3ab81283ff983e695faf3a5285219826","amp;dn":"Closing+Ceremony+of+the+2012+Olympic+Games+-+No+Commentary","amp;tr":["udp%3A%2F%2Ftracker.openbittorrent.com%3A80","udp%3A%2F%2Fopen.demonii.com%3A1337","udp%3A%2F%2Ftracker.coppersurfer.tk%3A6969","udp%3A%2F%2Fexodus.desync.com%3A6969"],"infoHash":"e2d240ba3ab81283ff983e695faf3a5285219826","infoHashBuffer":{"type":"Buffer","data":[226,210,64,186,58,184,18,131,255,152,62,105,95,175,58,82,133,33,152,38]},"announce":[],"urlList":[]}}